#!OML:ASF F:\VICON\USERDATA\INSTALL\rory3\rory3.ASF
:FULLY-SPECIFIED
:DEGREES
55
root -0.016125578062058554 18.507078968849747 24.79165930197055 4.115159371608887 3.972645688176631 -4.783761203495968
lfemur -37.88940607881831 -1.7619270910187572 -16.84013425217901
ltibia 50.395285468429385
lfoot -0.5683006422534276 -9.35711403625067
ltoes -16.481939842025803
rfemur 13.505121808346491 3.4795646327073624 34.49334101140995
rtibia 33.48375463482296
rfoot 23.702652838814018 -0.5127786670345236
rtoes 9.567796492862641
lowerback 13.176727755070168 2.4238052231121863 6.5387440163296775
upperback -2.140270960309517 4.400997876731849 1.60486584488799
thorax -9.003645523250086 1.8095953772809055 -3.5624063745503256
lowerneck -19.002853229898644 -5.20313828277089 -1.9922096681003505
upperneck 15.189141306518577 -7.055007090003074 2.715966394703209
head 7.9686949425924745 -3.214412391891951 0.354839786174033
lclavicle -9.495534580207129e-16 2.3484501513255945e-15
lhumerus -70.09946650177375 -7.665260202995737 97.18589238925264
lradius 107.29181474896738
lwrist 34.68222188839995
lhand -25.39134615427677 3.723619085539022
lfingers 7.12502
lthumb 1.1335342511399866 33.70622869341023
rclavicle -9.495534580207129e-16 2.3484501513255945e-15
rhumerus -39.82051928052253 13.380720217650222 -93.26616407342776
rradius 115.63443145145166
rwrist -10.67604717289406
rhand -14.894548384459068 38.9787189350913
rfingers 7.12502
rthumb 11.2658078579094 10.818910333249441
56
root -0.002639704090169087 18.576690968587375 25.433061951689304 4.2327440407809345 3.9281856496823297 -4.96672781491656
lfemur -36.59714550527958 -1.6292374818285118 -17.42528355793634
ltibia 41.895285433203995
lfoot 0.8501011481398997 -10.466550388745404
ltoes -16.492210296777873
rfemur 14.40228525837676 4.827196267127224 34.77517540890867
rtibia 34.72127393070518
rfoot 25.67720571347047 -1.0738995279159642
rtoes 14.562364894244725
lowerback 12.566494128119338 2.661051232825943 6.684359670138094
upperback -2.3328478192456226 4.693377468865451 1.4527027399127674
thorax -8.768071369779934 1.9439820866044983 -3.940938759570939
lowerneck -18.957325832046582 -5.289803399209679 -2.0335463059026115
upperneck 15.633642936491993 -7.201241281256996 2.786342724154646
head 8.108810858155458 -3.2705891547133414 0.3664553730650482
lclavicle -1.3049117407485898e-15 2.091867213379261e-15
lhumerus -71.60837278017065 -6.407146457248873 96.36124291332739
lradius 108.60271909790508
lwrist 34.116277578280695
lhand -25.427031936856157 3.268464255443168
lfingers 7.12502
lthumb 1.0990185482982526 33.24593079855388
rclavicle -1.3049117407485898e-15 2.091867213379261e-15
rhumerus -40.129217998439486 13.839907932112794 -93.55036731904158
rradius 115.12440537338968
rwrist -10.866385552381468
rhand -14.901535504475254 39.039584472925576
rfingers 7.12502
rthumb 11.259403881268534 11.04574391510463
57
root 0.005995104490652159 18.61010322672715 26.04447540635539 4.164966271847774 4.057035450449993 -5.208712703131809
lfemur -34.844820447975955 -1.3944815481593977 -17.774146468418667
ltibia 35.69367169465754
lfoot 2.421958292658274 -11.013189111884376
ltoes -16.047016203369772
rfemur 14.381729746128233 5.9485644507926985 35.27951491082373
rtibia 38.578022953945016
rfoot 25.18423226222219 -2.0881252959114267
rtoes 15.47024408831397
lowerback 12.496693850703782 2.790222226590883 6.826627951787152
upperback -2.4083137537748205 4.882943015365011 1.4308387233588407
thorax -8.770665300377688 2.0271536452252366 -4.0811589186623065
lowerneck -19.101365764328783 -5.347788964349393 -2.118985974974546
upperneck 15.790975596422228 -7.292318879679984 2.9077351397448257
head 8.195138579037236 -3.3001589105838347 0.4091877768387602
lclavicle -1.2787096172782957e-15 2.109258911883823e-15
lhumerus -72.37362142471213 -5.51754809969594 95.8563471247818
lradius 110.48050882460808
lwrist 33.62803196719577
lhand -24.910867048170406 2.2083234198056645
lfingers 7.12502
lthumb 1.5974929167070693 32.174015025655855
rclavicle -1.2787096172782957e-15 2.109258911883823e-15
rhumerus -40.508939914916354 14.340718288500874 -93.92190316615834
rradius 114.82718359146502
rwrist -10.824297317729709
rhand -15.349452713445475 38.98914804289547
rfingers 7.12502
rthumb 10.827606394704596 10.839804691170128
58
root -0.006560099448851914 18.57883261373083 27.044316399098527 3.92856586564154 3.990799422260354 -5.310671777027579
lfemur -33.25919761731845 -0.8101473111161499 -18.286455743575086
ltibia 31.724174041455036
lfoot 3.1965989064046427 -10.900411322016062
ltoes -16.593073610342913
rfemur 13.88336332579033 6.525023144512781 35.449927046976136
rtibia 44.042527634594336
rfoot 24.002097370603053 -3.7602017857833876
rtoes 16.176121059014715
lowerback 12.55255147337656 2.9303790845085116 6.784241074656206
upperback -2.286063321049199 5.061300883567146 1.3882877033389667
thorax -8.701977491844373 2.1156554013564723 -4.121410113023321
lowerneck -19.186301392164523 -5.326619509780484 -2.1720729009349173
upperneck 15.746145266410991 -7.261352430772 3.017937498437608
head 8.210697988812647 -3.277362884948462 0.46235060028239183
lclavicle -1.1524605263795395e-15 2.202143008656402e-15
lhumerus -72.58302091242486 -4.721118881559686 95.60910054593296
lradius 111.55949392995147
lwrist 32.9324771318581
lhand -24.677620230828207 1.7575878260645268
lfingers 7.12502
lthumb 1.8227506078450835 31.718013803574287
rclavicle -1.1524605263795395e-15 2.202143008656402e-15
rhumerus -40.43537520372283 14.725345499534711 -94.28566977623598
rradius 113.89354562252103
rwrist -10.812885556156255
rhand -15.734406254416772 38.97604565325157
rfingers 7.12502
rthumb 10.45671012900131 10.699236203708857
